# xmcd
#
# Track frame offsets: 
#        150
#        8141
#        14812
#        20396
#        26110
#        36313
#        48516
#        59148
#        75982
#        91944
#        103545
#        112317
#        118512
#        129434
#        140525
#
# Disc length: 2117 seconds
#
# Revision: 0
# Processed by: cddbd v1.5.2PL0 Copyright (c) Steve Scherf et al.
# Submitted via: ExactAudioCopy v0.95a3
#
DISCID=cc08430f
DTITLE=Triis no Paardaugavas - Circena kaazas
DYEAR=1974
DGENRE=Folk
TTITLE0=sesi mazi bundzenieki
TTITLE1=aiz kalnina dumi kup
TTITLE2=kur tu teci, rudzu pele
TTITLE3=ai sunisi, nerejati
TTITLE4=circena kaazas
TTITLE5=vazu paaris
TTITLE6=es esmu muc'nieks
TTITLE7=aijaa zuuzuu, laaca beerni
TTITLE8=mazias Peteris Piparnieks
TTITLE9=rakuuns Ralfs
TTITLE10=sportists
TTITLE11=puisi, puisi
TTITLE12=bumbuls
TTITLE13=nakts kad apklaaj zemi klusu
TTITLE14=Antins
EXTD=
EXTT0=
EXTT1=
EXTT2=
EXTT3=
EXTT4=
EXTT5=
EXTT6=
EXTT7=
EXTT8=
EXTT9=
EXTT10=
EXTT11=
EXTT12=
EXTT13=
EXTT14=
PLAYORDER=
